<?xml version="1.0" standalone="no"?>
<!DOCTYPE svg PUBLIC "-//W3C//DTD SVG 20010904//EN"
 "http://www.w3.org/TR/2001/REC-SVG-20010904/DTD/svg10.dtd">
<svg version="1.0" xmlns="http://www.w3.org/2000/svg"
 width="2048.000000pt" height="2048.000000pt" viewBox="0 0 2048.000000 2048.000000"
 preserveAspectRatio="xMidYMid meet">
<metadata>
Created by potrace 1.11, written by Peter Selinger 2001-2013
</metadata>
<g transform="translate(0.000000,2048.000000) scale(0.100000,-0.100000)"
fill="#000000" stroke="none">
<path d="M749 20476 c-2 -2 -23 -6 -47 -10 -76 -10 -120 -24 -222 -69 -14 -6
-56 -31 -94 -55 -191 -120 -327 -323 -372 -551 -11 -54 -13 -1840 -11 -9576
l2 -9510 23 -80 c91 -312 327 -535 642 -605 83 -19 270 -20 9570 -20 9308 0
9487 1 9570 20 168 37 303 111 421 229 55 55 159 196 159 215 0 3 12 31 26 61
14 31 34 95 44 143 19 85 20 255 19 9567 0 10074 3 9534 -43 9668 -61 179
-186 340 -342 440 -94 59 -150 84 -258 112 l-91 24 -9496 1 c-5223 0 -9498 -2
-9500 -4z m5553 -5258 c2 -7 4 -191 4 -408 l-1 -395 -235 -1 c-211 -1 -358 -8
-415 -18 -11 -2 -42 -7 -70 -11 -167 -23 -383 -104 -510 -190 -260 -176 -397
-418 -459 -810 -14 -89 -18 -272 -19 -1005 -1 -877 -5 -968 -58 -1190 -101
-421 -318 -710 -664 -883 -49 -24 -119 -55 -155 -67 -36 -12 -72 -25 -80 -28
-8 -3 -19 -6 -25 -7 -5 -2 -37 -10 -70 -18 -61 -16 -106 -25 -137 -26 -10 -1
-18 -5 -18 -10 0 -5 8 -8 17 -7 10 2 33 -1 53 -5 19 -4 49 -10 65 -12 110 -17
270 -69 385 -125 367 -178 601 -538 670 -1027 6 -44 14 -93 17 -110 3 -16 8
-343 10 -725 7 -1453 10 -1806 17 -1840 3 -19 11 -63 16 -97 18 -107 68 -265
115 -360 126 -256 325 -426 610 -521 197 -65 355 -85 715 -86 l225 -1 0 -408
0 -408 -380 6 c-209 2 -393 7 -408 9 -15 2 -60 7 -100 11 -40 4 -79 8 -87 10
-8 1 -35 6 -60 9 -25 4 -97 18 -161 32 -518 110 -890 342 -1136 709 -105 156
-204 384 -247 565 -2 8 -9 33 -15 55 -5 22 -13 56 -16 75 -3 19 -8 42 -10 50
-2 8 -7 35 -10 60 -3 25 -7 61 -10 80 -9 67 -14 115 -21 190 -4 41 -8 611 -9
1265 -3 1314 -2 1299 -66 1510 -49 158 -97 242 -203 354 -144 151 -399 270
-656 306 -25 3 -52 8 -60 10 -53 13 -248 23 -476 24 l-182 1 1 404 0 403 181
1 c182 0 428 9 456 17 8 2 44 7 80 10 36 4 72 9 80 10 137 29 182 40 248 62
98 33 181 74 258 129 68 48 156 140 181 188 8 17 21 38 28 46 18 22 72 171 84
232 6 29 13 64 16 78 2 14 7 49 11 78 3 29 8 63 11 75 2 12 6 425 8 917 1 492
5 923 9 958 3 34 8 90 11 125 5 52 29 208 50 320 22 114 89 315 146 436 41 87
137 247 174 288 106 121 171 188 219 228 209 176 501 316 811 389 144 34 146
35 285 52 25 3 56 7 69 9 13 2 69 7 125 11 56 3 102 7 103 8 1 1 150 3 331 5
266 2 330 0 334 -11z m8693 -2 c22 -3 60 -8 85 -10 127 -14 163 -20 254 -37
230 -45 382 -93 565 -180 68 -33 150 -77 182 -99 33 -22 63 -40 68 -40 5 0 11
-4 13 -8 2 -4 25 -25 52 -45 114 -86 243 -227 322 -350 26 -39 54 -83 64 -97
51 -75 143 -308 183 -460 39 -149 55 -235 72 -400 3 -30 9 -71 12 -90 3 -19 7
-417 8 -885 2 -753 6 -976 21 -1049 2 -12 9 -50 15 -86 37 -235 166 -450 347
-580 52 -38 179 -105 227 -120 22 -7 45 -16 50 -20 17 -14 256 -68 350 -80 97
-12 276 -21 500 -23 l140 -2 0 -402 0 -403 -180 0 c-221 -1 -426 -10 -525 -25
-14 -2 -45 -6 -70 -10 -144 -21 -304 -68 -416 -122 -168 -82 -297 -218 -365
-389 -35 -88 -76 -287 -85 -419 -4 -55 -8 -638 -10 -1295 -1 -657 -5 -1217 -8
-1245 -3 -27 -8 -75 -11 -105 -19 -173 -72 -412 -126 -566 -59 -169 -179 -385
-274 -493 -123 -141 -215 -222 -347 -308 -82 -53 -234 -133 -252 -133 -8 0
-16 -3 -18 -7 -3 -8 -29 -18 -156 -64 -117 -43 -378 -101 -512 -115 -25 -3
-55 -7 -67 -9 -56 -12 -276 -20 -572 -20 l-324 0 1 390 c0 215 1 397 1 405 1
14 32 16 234 16 378 1 552 24 762 101 371 136 613 439 679 848 11 67 17 110
22 164 4 31 8 585 9 1231 2 646 6 1201 9 1233 11 113 41 280 67 372 131 480
453 796 936 920 54 13 116 27 138 31 22 3 47 10 55 15 13 8 13 9 0 7 -20 -2
-115 11 -165 24 -39 10 -51 13 -95 23 -84 18 -312 119 -386 171 -281 196 -444
467 -530 878 -3 17 -15 102 -31 216 -2 19 -6 411 -8 870 -3 937 -4 968 -45
1165 -103 503 -437 807 -971 885 -145 21 -183 23 -426 23 -139 1 -253 3 -254
6 -1 8 -1 760 0 790 l1 24 373 -6 c204 -3 390 -8 412 -11z m-1967 -936 l32 0
-2 -887 -3 -887 -830 -1 c-456 0 -837 1 -846 3 -15 3 -17 76 -17 887 l0 884
26 3 c21 2 1473 1 1640 -2z m-3980 -2547 c54 -71 223 -290 376 -488 152 -198
282 -367 289 -375 7 -8 102 -132 212 -275 110 -143 205 -267 212 -275 18 -23
132 -171 190 -247 29 -37 143 -185 253 -328 111 -143 265 -343 343 -444 78
-102 176 -228 217 -282 41 -53 113 -147 160 -207 46 -61 86 -109 88 -107 2 2
4 713 4 1579 l0 1576 835 -2 836 -3 -1 -3090 c0 -1699 -1 -3100 -1 -3112 l-1
-23 -663 0 -663 0 -36 48 c-20 26 -45 57 -55 68 -10 12 -29 36 -43 54 -14 18
-128 164 -255 324 -126 160 -242 307 -257 326 -16 19 -69 87 -119 150 -50 63
-101 129 -114 145 -13 17 -79 100 -147 186 -122 154 -136 172 -219 279 -24 30
-49 61 -56 70 -7 8 -68 85 -135 171 -68 86 -179 227 -248 314 -69 87 -149 190
-179 229 -30 39 -57 73 -61 76 -3 3 -46 57 -95 120 -50 63 -98 124 -107 135
-9 11 -65 81 -123 155 -58 74 -111 142 -118 150 -7 8 -20 26 -30 40 -17 24
-17 24 -17 -40 -1 -36 -1 -725 -1 -1532 l0 -1468 -835 0 -834 0 0 3115 0 3115
650 0 649 0 99 -127z"/>
</g>
</svg>
